<?xml version="1.0" standalone="no"?>
<!DOCTYPE svg PUBLIC "-//W3C//DTD SVG 20010904//EN"
 "http://www.w3.org/TR/2001/REC-SVG-20010904/DTD/svg10.dtd">
<svg version="1.0" xmlns="http://www.w3.org/2000/svg"
 width="512.000000pt" height="512.000000pt" viewBox="0 0 512.000000 512.000000"
 preserveAspectRatio="xMidYMid meet">

<g transform="translate(0.000000,512.000000) scale(0.100000,-0.100000)"
fill="#000000" stroke="none">
<path d="M3411 4814 l-352 -246 -387 180 c-213 99 -397 183 -409 186 -12 4
-33 4 -48 0 -31 -8 -795 -539 -810 -563 -21 -33 -19 -85 12 -456 18 -209 32
-400 32 -425 l1 -45 -355 -248 c-312 -219 -355 -252 -364 -282 -6 -23 1 -156
25 -436 18 -222 34 -415 34 -430 0 -22 -44 -56 -356 -274 -241 -169 -360 -258
-371 -278 -13 -26 -11 -71 22 -476 20 -245 38 -461 41 -479 10 -68 44 -88 491
-296 232 -108 429 -196 438 -196 29 0 77 31 405 260 179 125 330 230 337 234
7 4 190 -76 410 -179 332 -155 403 -185 431 -181 22 3 154 90 393 256 197 139
365 250 372 247 6 -3 186 -86 399 -186 223 -104 400 -181 416 -181 34 0 4 -19
465 303 243 170 363 261 374 280 13 26 11 71 -22 476 -20 245 -38 461 -41 479
-10 66 -38 83 -459 280 l-400 188 -32 384 c-17 212 -31 385 -30 386 207 140
690 484 710 505 21 23 27 39 27 74 0 55 -68 880 -76 916 -11 55 -56 81 -474
277 -331 154 -421 192 -454 192 -39 0 -70 -19 -395 -246z m750 -145 c189 -88
348 -164 352 -168 10 -10 72 -753 65 -773 -3 -7 -146 -112 -318 -232 l-312
-218 -186 86 c-103 48 -261 122 -352 165 l-165 78 -32 389 c-25 302 -30 390
-20 396 6 4 149 104 317 222 168 118 306 215 306 216 1 0 157 -72 345 -161z
m-1561 -131 c190 -89 347 -163 349 -164 2 -2 18 -176 36 -386 29 -351 31 -384
16 -399 -9 -10 -152 -112 -318 -229 l-303 -211 -347 162 c-192 90 -350 164
-352 166 -3 2 -19 178 -36 391 -23 280 -29 389 -21 394 6 4 148 104 316 222
168 118 307 215 310 216 3 0 160 -73 350 -162z m930 -1313 c168 -80 308 -149
312 -153 6 -6 68 -700 68 -759 0 -17 -70 -70 -312 -240 -171 -120 -315 -219
-319 -221 -5 -2 -687 313 -697 322 -2 3 -53 594 -64 758 l-3 37 314 220 314
219 41 -18 c23 -10 178 -84 346 -165z m-1600 -117 c190 -89 346 -162 348 -163
3 -3 62 -710 62 -751 0 -29 -17 -43 -312 -249 -172 -121 -319 -218 -328 -217
-8 0 -168 73 -355 161 l-340 161 -32 382 c-18 211 -31 386 -30 390 2 7 628
448 637 448 3 0 160 -73 350 -162z m2495 -1162 c193 -91 351 -171 352 -178 11
-62 62 -763 56 -769 -9 -8 -564 -396 -605 -423 l-28 -18 -347 163 c-192 90
-349 163 -350 164 -4 1 -64 748 -61 765 2 13 117 99 318 240 173 121 315 220
315 220 0 0 158 -74 350 -164z m-1595 -141 c184 -86 338 -160 341 -163 11 -11
70 -775 62 -782 -9 -9 -602 -423 -620 -433 -9 -6 -684 301 -702 319 -8 7 -69
779 -62 786 25 26 627 438 635 434 6 -2 162 -75 346 -161z m-1560 -127 c190
-89 346 -162 347 -162 2 -1 63 -728 63 -757 0 -22 -41 -54 -292 -230 -160
-112 -303 -212 -317 -221 -26 -17 -29 -16 -376 147 -193 90 -351 170 -352 177
-11 61 -62 763 -56 769 16 15 626 439 632 439 3 0 161 -73 351 -162z"/>
</g>
</svg>
